<mxfile host="app.diagrams.net" modified="2024-02-29T05:01:12.567Z" agent="Mozilla/5.0 (Macintosh; Intel Mac OS X 10_15_7) AppleWebKit/537.36 (KHTML, like Gecko) Chrome/121.0.0.0 Safari/537.36" version="23.1.1" etag="YNMprHUH9tOpYunAzTtH" type="github">
  <diagram name="Page-1" id="LEiZQaEFtY_GIa42c5NB">
    <mxGraphModel>
      <root>
        <mxCell id="0" />
        <mxCell id="1" parent="0" />
      </root>
    </mxGraphModel>
  </diagram>
</mxfile>
